<svg xmlns="http://www.w3.org/2000/svg" width="36" height="36" viewBox="0 0 36 36">
    <defs>
        <style>
            .cls-1{fill:none}
        </style>
    </defs>
    <g id="Group_6404" data-name="Group 6404" transform="translate(-1520 -6155.5)">
        <path id="Rectangle_11617" d="M0 0h36v36H0z" class="cls-1" data-name="Rectangle 11617"
              transform="translate(1520 6155.5)"/>
        <path id="_013-facebook"
              d="M8.332 22.341H4.754a1.084 1.084 0 0 1-1.084-1.084v-8.074H1.584A1.084 1.084 0 0 1 .5 12.105V8.653a1.084 1.084 0 0 1 1.084-1.085h2.088V5.842A5.9 5.9 0 0 1 5.23 1.618 5.615 5.615 0 0 1 9.37 0h2.73a1.086 1.086 0 0 1 1.08 1.086V4.3a1.084 1.084 0 0 1-1.08 1.084h-1.839c-.56 0-.7.113-.733.148a1.278 1.278 0 0 0-.11.664v1.368h2.538a1.1 1.1 0 0 1 .537.137 1.088 1.088 0 0 1 .557.942v3.452a1.084 1.084 0 0 1-1.084 1.083H9.417v8.071a1.084 1.084 0 0 1-1.084 1.084zM4.98 21.029h3.126V12.6a.725.725 0 0 1 .723-.723h2.913V8.872H8.83a.725.725 0 0 1-.723-.723V6.2a2.23 2.23 0 0 1 .438-1.532 2.221 2.221 0 0 1 1.715-.582h1.612V1.315H9.37a4.135 4.135 0 0 0-4.394 4.521v2.313a.725.725 0 0 1-.723.723H1.81v3.007h2.449a.725.725 0 0 1 .723.723zM12.1 1.315zm0 0"
              data-name="013-facebook" transform="translate(1530.838 6162.641)"/>
    </g>
</svg>
