<svg xmlns="http://www.w3.org/2000/svg" id="Group_6405" width="36" height="36" data-name="Group 6405"
     viewBox="0 0 36 36">
    <defs>
        <style>
            .cls-1{fill:none}
        </style>
    </defs>
    <path id="Rectangle_11616" d="M0 0h36v36H0z" class="cls-1" data-name="Rectangle 11616"/>
    <g id="_014-instagram" data-name="014-instagram">
        <path id="Tracé_106"
              d="M23.125 6.829h-10.25a6.045 6.045 0 0 0-6.046 6.046v10.25a6.045 6.045 0 0 0 6.046 6.046h10.25a6.045 6.045 0 0 0 6.046-6.046v-10.25a6.045 6.045 0 0 0-6.046-6.046zm4.742 16.3a4.755 4.755 0 0 1-4.742 4.742h-10.25a4.747 4.747 0 0 1-4.742-4.742V12.875a4.739 4.739 0 0 1 4.742-4.742h10.25a4.747 4.747 0 0 1 4.742 4.742z"
              data-name="Tracé 106"/>
        <path id="Tracé_107"
              d="M17.994 11.887a6.107 6.107 0 1 0 6.106 6.107 6.1 6.1 0 0 0-6.106-6.107zm-4.8 6.107a4.8 4.8 0 1 1 4.8 4.8 4.8 4.8 0 0 1-4.8-4.8z"
              data-name="Tracé 107"/>
        <path id="Tracé_108" d="M24.3 10.364a1.34 1.34 0 1 0 1.341 1.34 1.336 1.336 0 0 0-1.341-1.34z"
              data-name="Tracé 108"/>
    </g>
</svg>
