<svg xmlns="http://www.w3.org/2000/svg" version="1.1" xmlns:xlink="http://www.w3.org/1999/xlink" xmlns:svgjs="http://svgjs.dev/svgjs" width="1000" height="252" viewBox="0 0 1000 252"><g transform="matrix(1,0,0,1,-0.6060606060606233,0.13241223670479485)"><svg viewBox="0 0 396 100" data-background-color="#ffffff" preserveAspectRatio="xMidYMid meet" height="252" width="1000" xmlns="http://www.w3.org/2000/svg" xmlns:xlink="http://www.w3.org/1999/xlink"><g id="tight-bounds" transform="matrix(1,0,0,1,0.2400000000000091,-0.05254453837491724)"><svg viewBox="0 0 395.52 100.10508907674982" height="100.10508907674982" width="395.52"><g><svg viewBox="0 0 528.6097174780723 133.78975236392088" height="100.10508907674982" width="395.52"><g><rect width="5.075091787710835" height="116.17055198024967" x="114.7290450942598" y="8.809600191835607" fill="#111111" opacity="1" stroke-width="0" stroke="transparent" fill-opacity="1" class="rect-i$-0" data-fill-palette-color="primary" rx="1%" id="i$-0" data-palette-color="#111111"></rect></g><g transform="matrix(1,0,0,1,133.0897174780723,18.490479523523078)"><svg viewBox="0 0 395.52 96.80879331687473" height="96.80879331687473" width="395.52"><g id="textblocktransform"><svg viewBox="0 0 395.52 96.80879331687473" height="96.80879331687473" width="395.52" id="textblock"><g><svg viewBox="0 0 395.52 56.27671002601561" height="56.27671002601561" width="395.52"><g transform="matrix(1,0,0,1,0,0)"><svg width="395.52" viewBox="3.6 -35.1 249.83 35.550000000000004" height="56.27671002601561" data-palette-color="#111111"><path d="M31.8 0L32.1-15.15Q32.15-17.05 31.23-18.13 30.3-19.2 28.55-19.2L28.55-19.2Q25.7-19.2 22.65-16.3L22.65-16.3 22.55-10.1 22.8 0 17.65 0 18-15.15Q18.05-17.05 17.13-18.13 16.2-19.2 14.45-19.2L14.45-19.2Q11.55-19.2 8.45-16.2L8.45-16.2 8.4-10.1 8.7 0 3.6 0 3.9-9.65 3.65-22.7 8.5-23.15 8.45-19.8 8.8-19.8Q11.75-22.4 14.95-23.35L14.95-23.35Q17.75-23.35 19.58-22.38 21.4-21.4 22.15-19.6L22.15-19.6 22.45-19.6Q25.5-22.25 29.05-23.35L29.05-23.35Q32.9-23.35 34.88-21.6 36.85-19.85 36.8-16.6L36.8-16.6 36.65-10.1 36.9 0 31.8 0ZM54.85-23.1Q55.4-23.1 56.1-23L56.1-23 56.1-18.15 55.55-18Q54.75-18.25 53.7-18.25L53.7-18.25Q52.15-18.25 50.8-17.1 49.45-15.95 48.2-13.4L48.2-13.4 48.15-10.1 48.45 0 43.35 0 43.7-9.65 43.4-22.7 48.25-23.15 48.2-18.55 48.55-18.55Q49.9-20.95 51.55-22.03 53.2-23.1 54.85-23.1L54.85-23.1ZM96.24 0L96.54-15.15Q96.59-17.05 95.67-18.13 94.74-19.2 92.99-19.2L92.99-19.2Q90.14-19.2 87.09-16.3L87.09-16.3 86.99-10.1 87.24 0 82.09 0 82.44-15.15Q82.49-17.05 81.57-18.13 80.64-19.2 78.89-19.2L78.89-19.2Q75.99-19.2 72.89-16.2L72.89-16.2 72.84-10.1 73.14 0 68.04 0 68.34-9.65 68.09-22.7 72.94-23.15 72.89-19.8 73.24-19.8Q76.19-22.4 79.39-23.35L79.39-23.35Q82.19-23.35 84.02-22.38 85.84-21.4 86.59-19.6L86.59-19.6 86.89-19.6Q89.94-22.25 93.49-23.35L93.49-23.35Q97.34-23.35 99.32-21.6 101.29-19.85 101.24-16.6L101.24-16.6 101.09-10.1 101.34 0 96.24 0ZM125.69-11.9L125.14-11.3 111.09-11.25Q111.14-7.45 112.94-5.48 114.74-3.5 118.04-3.5L118.04-3.5Q121.49-3.5 124.79-5.55L124.79-5.55 125.29-5.25 124.54-1.15Q120.89 0.45 117.44 0.45L117.44 0.45Q112.29 0.45 109.37-2.73 106.44-5.9 106.44-11.4L106.44-11.4Q106.44-16.95 109.34-20.2 112.24-23.45 117.19-23.45L117.19-23.45Q121.39-23.45 123.67-21.15 125.94-18.85 125.94-14.65L125.94-14.65Q125.94-13.5 125.69-11.9L125.69-11.9ZM121.24-14.55L121.34-15.25Q121.34-17.6 120.27-18.8 119.19-20 117.14-20L117.14-20Q114.84-20 113.34-18.53 111.84-17.05 111.34-14.35L111.34-14.35 121.24-14.55ZM140.24-23.5Q141.84-23.5 143.49-23.15 145.14-22.8 146.39-22.2L146.39-22.2 145.54-17.95 145.04-17.75Q142.39-19.3 140.14-19.3L140.14-19.3Q137.49-19.3 135.99-17.3 134.49-15.3 134.49-11.7L134.49-11.7Q134.49-7.85 136.04-5.73 137.59-3.6 140.44-3.6L140.44-3.6Q142.94-3.6 145.79-5.1L145.79-5.1 146.24-4.8 145.74-0.7Q142.69 0.45 139.64 0.45L139.64 0.45Q134.94 0.45 132.31-2.68 129.69-5.8 129.69-11.3L129.69-11.3Q129.69-17 132.49-20.25 135.29-23.5 140.24-23.5L140.24-23.5ZM164.89 0L165.19-15.15Q165.24-17.05 164.31-18.13 163.39-19.2 161.64-19.2L161.64-19.2Q158.79-19.2 155.64-16.2L155.64-16.2 155.54-10.15 155.89 0 150.79 0 151.14-9.7 150.84-34.7 155.94-35.1 155.69-19.8 155.99-19.8Q158.94-22.4 162.14-23.35L162.14-23.35Q165.99-23.35 167.96-21.6 169.94-19.85 169.89-16.6L169.89-16.6 169.79-10.1 169.99 0 164.89 0ZM185.08-23.5Q188.53-23.5 190.53-21.85 192.53-20.2 192.53-17.25L192.53-17.25Q192.53-16.35 192.23-11.25L192.23-11.25Q191.93-6.25 191.93-5.4L191.93-5.4Q191.93-4.45 192.26-4.08 192.58-3.7 193.38-3.7L193.38-3.7Q193.88-3.7 194.88-3.9L194.88-3.9 195.33-3.55 194.83-0.75Q193.38 0.15 191.68 0.35L191.68 0.35Q190.13 0.2 189.18-0.78 188.23-1.75 188.03-3.35L188.03-3.35 187.68-3.35Q185.13-0.65 182.48 0.4L182.48 0.4Q179.03 0.35 177.06-1.4 175.08-3.15 175.08-6.15L175.08-6.15Q175.08-10.6 179.93-11.7L179.93-11.7 187.83-13.45 187.88-16.15Q187.88-18 186.96-18.95 186.03-19.9 184.28-19.9L184.28-19.9Q182.58-19.9 180.88-19.13 179.18-18.35 177.13-16.7L177.13-16.7 176.73-16.95 176.08-20.5Q180.48-23.5 185.08-23.5L185.08-23.5ZM187.83-10.5L181.33-8.95Q180.43-8.75 180.03-8.28 179.63-7.8 179.63-6.8L179.63-6.8Q179.63-5.3 180.46-4.45 181.28-3.6 182.68-3.6L182.68-3.6Q185.03-3.6 187.68-6.65L187.68-6.65 187.83-10.5ZM213.98 0L214.33-15.15Q214.38-17.05 213.46-18.13 212.53-19.2 210.78-19.2L210.78-19.2Q207.88-19.2 204.78-16.2L204.78-16.2 204.73-10.1 205.03 0 199.93 0 200.23-9.65 199.98-22.7 204.83-23.15 204.78-19.8 205.13-19.8Q208.08-22.4 211.28-23.35L211.28-23.35Q215.13-23.35 217.11-21.6 219.08-19.85 219.03-16.6L219.03-16.6 218.88-10.1 219.13 0 213.98 0ZM226.08 0L226.28-9.65 226.13-22.7 231.13-23.15 230.93-10.1 231.08 0 226.08 0ZM228.68-33.8Q229.93-33.8 230.63-33.08 231.33-32.35 231.33-31.05L231.33-31.05Q231.33-29.7 230.58-28.9 229.83-28.1 228.53-28.1L228.53-28.1Q227.23-28.1 226.5-28.85 225.78-29.6 225.78-30.9L225.78-30.9Q225.78-32.2 226.55-33 227.33-33.8 228.68-33.8L228.68-33.8ZM247.28-23.5Q248.88-23.5 250.53-23.15 252.18-22.8 253.43-22.2L253.43-22.2 252.58-17.95 252.08-17.75Q249.43-19.3 247.18-19.3L247.18-19.3Q244.53-19.3 243.03-17.3 241.53-15.3 241.53-11.7L241.53-11.7Q241.53-7.85 243.08-5.73 244.63-3.6 247.48-3.6L247.48-3.6Q249.98-3.6 252.83-5.1L252.83-5.1 253.28-4.8 252.78-0.7Q249.73 0.45 246.68 0.45L246.68 0.45Q241.98 0.45 239.35-2.68 236.73-5.8 236.73-11.3L236.73-11.3Q236.73-17 239.53-20.25 242.33-23.5 247.28-23.5L247.28-23.5Z" opacity="1" transform="matrix(1,0,0,1,0,0)" fill="#111111" class="undefined-text-0" data-fill-palette-color="primary" id="text-0"></path></svg></g></svg></g><g transform="matrix(1,0,0,1,0,69.56229062211727)"><svg viewBox="0 0 395.52 27.246502694757467" height="27.246502694757467" width="395.52"><g transform="matrix(1,0,0,1,0,0)"><svg width="395.52" viewBox="1.61 -31.9 586.42 40.41" height="27.246502694757467" data-palette-color="#42c8b7"><path d="M26.38-29.08L16.03-13.33 16.03-1.9Q16.03-0.57 14.83-0.11L14.83-0.11Q14.48 0 13.91 0 13.33 0 12.7-0.46 12.07-0.92 12.07-1.9L12.07-1.9 12.07-13.28 1.9-28.74Q1.61-29.08 1.61-29.48 1.61-29.89 1.78-30.23 1.95-30.57 2.3-30.86L2.3-30.86Q2.99-31.38 3.68-31.38L3.68-31.38Q4.94-31.38 5.52-30.34L5.52-30.34 14.31-16.38 14.37-16.38 23.22-30.46Q23.79-31.38 24.83-31.38L24.83-31.38Q25.98-31.38 26.44-30.46L26.44-30.46Q26.67-30.17 26.67-29.89L26.67-29.89Q26.67-29.54 26.38-29.08L26.38-29.08ZM29.88-10.86L29.88-10.86Q29.88-12.93 30.54-15 31.2-17.07 32.58-18.74L32.58-18.74Q35.46-22.24 40.74-22.24 46.03-22.24 48.91-18.74L48.91-18.74Q51.61-15.4 51.61-10.92L51.61-10.92Q51.61-6.38 48.91-3.1L48.91-3.1Q46.03 0.46 40.74 0.46 35.46 0.46 32.58-3.1L32.58-3.1Q29.88-6.32 29.88-10.86ZM33.62-10.86L33.62-10.86Q33.62-9.48 33.99-7.93 34.37-6.38 35.34-5.06L35.34-5.06Q37.3-2.24 40.74-2.24L40.74-2.24Q44.37-2.24 46.15-5.06L46.15-5.06Q47.81-7.7 47.81-10.92L47.81-10.92Q47.81-14.25 46.15-16.67L46.15-16.67Q44.31-19.54 40.74-19.54L40.74-19.54Q37.3-19.54 35.34-16.67L35.34-16.67Q33.62-14.31 33.62-10.86ZM75.45-20.11L75.45-1.61Q75.45-0.8 74.85-0.4 74.25 0 73.82 0 73.39 0 73.04-0.09 72.7-0.17 72.47-0.46L72.47-0.46Q71.89-0.86 71.89-1.61L71.89-1.61 71.89-3.62Q70.51-0.57 66.83 0.17L66.83 0.17Q65.68 0.46 64.36 0.46 63.04 0.46 61.6 0 60.17-0.46 59.13-1.49L59.13-1.49Q56.83-3.68 56.83-8.05L56.83-8.05 56.83-20.11Q56.83-20.92 57.35-21.38 57.87-21.84 58.56-21.84L58.56-21.84Q59.25-21.84 59.77-21.38 60.28-20.92 60.28-20.11L60.28-20.11 60.28-7.76Q60.28-4.66 61.55-3.45L61.55-3.45Q62.81-2.24 65.34-2.24L65.34-2.24Q69.59-2.24 71.2-5.69L71.2-5.69Q71.83-6.9 71.89-8.45L71.89-8.45 71.89-20.11Q71.89-20.92 72.47-21.38 73.04-21.84 73.73-21.84L73.73-21.84Q74.42-21.84 74.94-21.38 75.45-20.92 75.45-20.11L75.45-20.11ZM85.62-20.11L85.62-18.16Q87-22.24 91.66-22.24L91.66-22.24Q92.52-22.24 92.95-21.75 93.38-21.26 93.38-20.72 93.38-20.17 92.95-19.68 92.52-19.2 91.37-19.2 90.22-19.2 89.07-18.74 87.92-18.28 87.18-17.41L87.18-17.41Q85.62-15.52 85.62-12.41L85.62-12.41 85.62-1.61Q85.62-0.8 85.05-0.4 84.48 0 84.02 0 83.56 0 83.27-0.09 82.98-0.17 82.69-0.46L82.69-0.46Q82.18-0.8 82.18-1.61L82.18-1.61 82.18-20.11Q82.18-20.86 82.69-21.35 83.21-21.84 83.99-21.84 84.76-21.84 85.19-21.35 85.62-20.86 85.62-20.11L85.62-20.11ZM117-19.54L117-19.54Q112-19.54 112.11-16.38L112.11-16.38Q112.11-14.37 114.99-13.62L114.99-13.62Q115.96-13.33 117.09-13.1 118.21-12.87 119.53-12.56 120.85-12.24 122.23-11.72L122.23-11.72Q124.18-11.15 125.25-9.8 126.31-8.45 126.31-6.55L126.31-6.55Q126.31-3.1 123.38-1.21L123.38-1.21Q120.73 0.52 116.71 0.46L116.71 0.46Q113.72 0.46 110.85-0.57L110.85-0.57Q109.7-1.03 109.01-1.67 108.32-2.3 108.32-2.87 108.32-3.45 108.69-3.79 109.07-4.14 109.59-4.14 110.1-4.14 110.76-3.85 111.42-3.56 112.46-3.22L112.46-3.22Q115.1-2.24 116.71-2.24 118.32-2.24 119.3-2.44 120.27-2.64 121.08-3.1L121.08-3.1Q122.8-4.25 122.8-6.09L122.8-6.09Q122.8-7.41 121.97-8.13 121.14-8.85 119.84-9.25 118.55-9.66 117.29-9.94 116.02-10.23 114.76-10.52 113.49-10.8 112.34-11.21 111.19-11.61 110.39-12.3L110.39-12.3Q108.44-13.68 108.44-16.21L108.44-16.21Q108.44-19.43 111.14-20.86L111.14-20.86Q113.38-22.24 117.06-22.24L117.06-22.24Q120.79-22.24 123.03-21.15L123.03-21.15Q124.93-20.17 124.93-18.97L124.93-18.97Q124.93-18.51 124.56-18.22 124.18-17.93 123.72-17.93L123.72-17.93Q122.86-17.93 122.43-18.22 122-18.51 121.48-18.79 120.96-19.08 120.27-19.2L120.27-19.2Q119.01-19.54 117-19.54ZM143.2-1.26L143.2-1.26Q143.2 0.46 139.12 0.46L139.12 0.46Q136.08 0.46 134.81-1.21L134.81-1.21Q133.43-2.99 133.32-7.07L133.32-7.07 133.32-19.14 130.79-19.14Q130.1-19.14 129.7-19.57 129.3-20 129.3-20.46L129.3-20.46Q129.3-20.92 129.64-21.38 129.99-21.84 130.79-21.84L130.79-21.84 133.55-21.84 133.78-28.05Q133.89-28.74 134.41-29.11 134.93-29.48 135.5-29.48 136.08-29.48 136.48-29.14 136.88-28.79 136.88-28.05L136.88-28.05 136.88-21.84 140.85-21.84Q141.54-21.84 141.91-21.38 142.28-20.92 142.28-20.46L142.28-20.46Q142.28-19.89 141.91-19.51 141.54-19.14 140.85-19.14L140.85-19.14 136.88-19.14 136.88-8.97Q136.88-4.71 137.17-3.82 137.46-2.93 138.09-2.59 138.72-2.24 139.64-2.24L139.64-2.24 141.88-2.41Q142.51-2.41 142.86-2.01 143.2-1.61 143.2-1.26ZM150.56-20.11L150.56-18.16Q151.94-22.24 156.59-22.24L156.59-22.24Q157.45-22.24 157.88-21.75 158.32-21.26 158.32-20.72 158.32-20.17 157.88-19.68 157.45-19.2 156.3-19.2 155.15-19.2 154.01-18.74 152.86-18.28 152.11-17.41L152.11-17.41Q150.56-15.52 150.56-12.41L150.56-12.41 150.56-1.61Q150.56-0.8 149.98-0.4 149.41 0 148.95 0 148.49 0 148.2-0.09 147.91-0.17 147.63-0.46L147.63-0.46Q147.11-0.8 147.11-1.61L147.11-1.61 147.11-20.11Q147.11-20.86 147.63-21.35 148.14-21.84 148.92-21.84 149.7-21.84 150.13-21.35 150.56-20.86 150.56-20.11L150.56-20.11ZM182.05-11.55L182.05-11.55Q182.05-10.34 180.67-10.23L180.67-10.23 164.92-10.23Q165.15-4.37 169.52-2.64L169.52-2.64Q170.73-2.24 172.28-2.24L172.28-2.24Q175.5-2.24 178.83-4.6L178.83-4.6Q179.87-5.17 180.55-4.48L180.55-4.48Q180.9-4.14 180.78-3.79L180.78-3.79Q180.78-2.99 180.38-2.64L180.38-2.64Q177.22 0.52 172.05 0.46L172.05 0.46Q167.34 0.46 164.46-2.59L164.46-2.59Q161.24-5.75 161.24-10.92L161.24-10.92Q161.24-15.69 163.89-18.79L163.89-18.79Q166.65-22.24 171.7-22.24L171.7-22.24Q176.76-22.24 179.41-19.2L179.41-19.2Q181.93-16.44 182.05-11.55ZM165.04-12.59L178.66-12.59Q178.49-15.69 176.65-17.7L176.65-17.7Q174.92-19.54 171.7-19.54L171.7-19.54Q168.95-19.54 166.99-17.47L166.99-17.47Q165.21-15.4 165.04-12.59L165.04-12.59ZM206.87-11.55L206.87-11.55Q206.87-10.34 205.49-10.23L205.49-10.23 189.75-10.23Q189.98-4.37 194.35-2.64L194.35-2.64Q195.55-2.24 197.1-2.24L197.1-2.24Q200.32-2.24 203.66-4.6L203.66-4.6Q204.69-5.17 205.38-4.48L205.38-4.48Q205.72-4.14 205.61-3.79L205.61-3.79Q205.61-2.99 205.21-2.64L205.21-2.64Q202.05 0.52 196.87 0.46L196.87 0.46Q192.16 0.46 189.29-2.59L189.29-2.59Q186.07-5.75 186.07-10.92L186.07-10.92Q186.07-15.69 188.71-18.79L188.71-18.79Q191.47-22.24 196.53-22.24L196.53-22.24Q201.59-22.24 204.23-19.2L204.23-19.2Q206.76-16.44 206.87-11.55ZM189.86-12.59L203.48-12.59Q203.31-15.69 201.47-17.7L201.47-17.7Q199.75-19.54 196.53-19.54L196.53-19.54Q193.77-19.54 191.82-17.47L191.82-17.47Q190.03-15.4 189.86-12.59L189.86-12.59ZM223.77-1.26L223.77-1.26Q223.77 0.46 219.69 0.46L219.69 0.46Q216.64 0.46 215.38-1.21L215.38-1.21Q214-2.99 213.88-7.07L213.88-7.07 213.88-19.14 211.35-19.14Q210.66-19.14 210.26-19.57 209.86-20 209.86-20.46L209.86-20.46Q209.86-20.92 210.2-21.38 210.55-21.84 211.35-21.84L211.35-21.84 214.11-21.84 214.34-28.05Q214.46-28.74 214.97-29.11 215.49-29.48 216.07-29.48 216.64-29.48 217.04-29.14 217.45-28.79 217.45-28.05L217.45-28.05 217.45-21.84 221.41-21.84Q222.1-21.84 222.47-21.38 222.85-20.92 222.85-20.46L222.85-20.46Q222.85-19.89 222.47-19.51 222.1-19.14 221.41-19.14L221.41-19.14 217.45-19.14 217.45-8.97Q217.45-4.71 217.73-3.82 218.02-2.93 218.65-2.59 219.29-2.24 220.2-2.24L220.2-2.24 222.45-2.41Q223.08-2.41 223.42-2.01 223.77-1.61 223.77-1.26ZM235.03-10L226.47-10Q225.78-10 225.35-10.46 224.92-10.92 224.92-11.58 224.92-12.24 225.37-12.67 225.83-13.1 226.47-13.1L226.47-13.1 235.03-13.1Q235.72-13.1 236.18-12.67 236.64-12.24 236.64-11.58 236.64-10.92 236.21-10.46 235.78-10 235.03-10L235.03-10ZM249.8-19.2L246.06-19.2 246.06-1.72Q246.06-0.86 245.52-0.43 244.97 0 244.45 0 243.94 0 243.62-0.09 243.3-0.17 243.07-0.46L243.07-0.46Q242.5-0.86 242.56-1.72L242.56-1.72 242.56-19.2 239.51-19.2Q238.82-19.2 238.48-19.6 238.13-20 238.13-20.52L238.13-20.52Q238.13-20.92 238.48-21.38 238.82-21.84 239.51-21.84L239.51-21.84 242.56-21.84 242.56-24.25Q242.56-30.17 245.72-31.49L245.72-31.49Q246.75-31.9 247.79-31.9L247.79-31.9Q249.63-31.9 251.52-31.26L251.52-31.26Q252.38-30.92 252.38-30.11L252.38-30.11Q252.38-29.66 252.1-29.22 251.81-28.79 251.32-28.79 250.83-28.79 250.57-28.82 250.31-28.85 250.08-28.97L250.08-28.97Q249.45-29.08 248.68-29.08 247.9-29.08 247.38-28.76 246.87-28.45 246.52-27.76L246.52-27.76Q246.06-26.67 246.06-22.53L246.06-22.53 246.06-21.84 249.8-21.84Q250.49-21.84 250.86-21.44 251.23-21.03 251.23-20.52 251.23-20 250.86-19.6 250.49-19.2 249.8-19.2L249.8-19.2ZM259.34-20.11L259.34-18.16Q260.71-22.24 265.37-22.24L265.37-22.24Q266.23-22.24 266.66-21.75 267.09-21.26 267.09-20.72 267.09-20.17 266.66-19.68 266.23-19.2 265.08-19.2 263.93-19.2 262.78-18.74 261.63-18.28 260.89-17.41L260.89-17.41Q259.34-15.52 259.34-12.41L259.34-12.41 259.34-1.61Q259.34-0.8 258.76-0.4 258.19 0 257.73 0 257.27 0 256.98-0.09 256.69-0.17 256.4-0.46L256.4-0.46Q255.89-0.8 255.89-1.61L255.89-1.61 255.89-20.11Q255.89-20.86 256.4-21.35 256.92-21.84 257.7-21.84 258.47-21.84 258.9-21.35 259.34-20.86 259.34-20.11L259.34-20.11ZM275.54-29.43L275.54-29.43Q275.54-28.51 274.91-27.93 274.28-27.36 273.13-27.36 271.98-27.36 271.34-27.93 270.71-28.51 270.71-29.43L270.71-29.43Q270.71-30.23 271.34-30.8 271.98-31.38 273.15-31.38 274.33-31.38 274.94-30.8 275.54-30.23 275.54-29.43ZM271.4-1.72L271.4-20Q271.4-20.86 271.98-21.35 272.55-21.84 273.01-21.84 273.47-21.84 273.76-21.7 274.05-21.55 274.33-21.26L274.33-21.26Q274.96-20.86 274.96-20L274.96-20 274.96-1.72Q274.96-0.86 274.39-0.43 273.82 0 273.13 0L273.13 0Q272.44 0 271.92-0.43 271.4-0.86 271.4-1.72L271.4-1.72ZM301.17-11.55L301.17-11.55Q301.17-10.34 299.79-10.23L299.79-10.23 284.04-10.23Q284.27-4.37 288.64-2.64L288.64-2.64Q289.85-2.24 291.4-2.24L291.4-2.24Q294.62-2.24 297.95-4.6L297.95-4.6Q298.99-5.17 299.68-4.48L299.68-4.48Q300.02-4.14 299.91-3.79L299.91-3.79Q299.91-2.99 299.5-2.64L299.5-2.64Q296.34 0.52 291.17 0.46L291.17 0.46Q286.46 0.46 283.58-2.59L283.58-2.59Q280.36-5.75 280.36-10.92L280.36-10.92Q280.36-15.69 283.01-18.79L283.01-18.79Q285.77-22.24 290.82-22.24L290.82-22.24Q295.88-22.24 298.53-19.2L298.53-19.2Q301.05-16.44 301.17-11.55ZM284.16-12.59L297.78-12.59Q297.61-15.69 295.77-17.7L295.77-17.7Q294.04-19.54 290.82-19.54L290.82-19.54Q288.07-19.54 286.11-17.47L286.11-17.47Q284.33-15.4 284.16-12.59L284.16-12.59ZM306.57-1.61L306.57-20.17Q306.57-20.92 307.14-21.38 307.72-21.84 308.29-21.84L308.29-21.84Q309.5-21.84 309.85-20.92 310.19-20 310.02-18.16L310.02-18.16Q310.71-19.89 313.01-21.15L313.01-21.15Q315.02-22.24 317-22.24 318.98-22.24 320.36-21.75 321.74-21.26 322.89-20.23L322.89-20.23Q325.19-18.05 325.19-13.79L325.19-13.79 325.19-1.61Q325.19-0.8 324.59-0.4 323.98 0 323.35 0L323.35 0Q322.66 0 322.14-0.43 321.63-0.86 321.63-1.61L321.63-1.61 321.63-14.02Q321.63-16.72 320.13-18.16L320.13-18.16Q318.75-19.54 316.68-19.54L316.68-19.54Q313.93-19.54 311.97-17.93L311.97-17.93Q310.02-16.21 310.02-12.64L310.02-12.64 310.02-1.61Q310.02-0.8 309.44-0.4 308.87 0 308.18 0L308.18 0Q307.49 0 307.03-0.43 306.57-0.86 306.57-1.61L306.57-1.61ZM347.43-1.61L347.43-3.62Q344.56 0.46 339.61 0.46L339.61 0.46Q335.13 0.46 332.6-3.1L332.6-3.1Q330.42-6.32 330.42-10.92L330.42-10.92Q330.42-18.62 335.53-21.26L335.53-21.26Q337.26-22.24 339.01-22.24 340.76-22.24 341.91-22.04 343.06-21.84 344.1-21.26L344.1-21.26Q346.28-20.17 347.43-18.28L347.43-18.28 347.43-29.66Q347.43-30.52 348-30.89 348.58-31.26 349.27-31.26L349.27-31.26Q349.96-31.26 350.47-30.89 350.99-30.52 350.99-29.66L350.99-29.66 350.99-1.61Q350.99-0.8 350.42-0.4 349.84 0 349.38 0 348.92 0 348.61-0.09 348.29-0.17 348-0.46L348-0.46Q347.43-0.86 347.43-1.61L347.43-1.61ZM340.3-2.24L340.3-2.24Q347.31-2.24 347.31-11.26L347.31-11.26Q347.31-17.07 343.81-18.85L343.81-18.85Q342.49-19.54 340.65-19.54 338.81-19.54 337.6-18.82 336.39-18.1 335.59-16.9L335.59-16.9Q334.15-14.66 334.15-11.21L334.15-11.21Q334.15-6.09 336.57-3.68L336.57-3.68Q337.95-2.24 340.3-2.24ZM357.31-1.72L357.31-29.54Q357.31-30.46 357.89-30.86 358.46-31.26 358.92-31.26 359.38-31.26 359.67-31.21 359.96-31.15 360.24-30.86L360.24-30.86Q360.87-30.46 360.87-29.54L360.87-29.54 360.87-1.72Q360.87-0.86 360.3-0.43 359.73 0 359.04 0L359.04 0Q358.35 0 357.83-0.43 357.31-0.86 357.31-1.72L357.31-1.72ZM371.27 6.32L373.86-0.17 365.41-19.48Q365.24-19.83 365.24-20.17 365.24-20.52 365.41-20.83 365.58-21.15 365.81-21.26L365.81-21.26Q366.5-21.72 367.14-21.84L367.14-21.84Q368.34-21.84 368.86-20.69L368.86-20.69 375.7-4.14 382.48-20.69Q383-21.84 383.83-21.84 384.67-21.84 385.21-21.35 385.76-20.86 385.76-20.34 385.76-19.83 385.58-19.48L385.58-19.48 374.55 7.36Q374.03 8.51 372.94 8.51L372.94 8.51Q372.25 8.51 371.79 8.16L371.79 8.16Q371.1 7.59 371.1 7.07 371.1 6.55 371.27 6.32L371.27 6.32ZM419.72-17.7L419.72-17.7Q422.48-22.24 427.65-22.24L427.65-22.24Q432.99-22.24 434.78-17.76L434.78-17.76Q435.41-16.09 435.41-13.91L435.41-13.91 435.41-1.61Q435.41-0.8 434.86-0.4 434.32 0 433.68 0L433.68 0Q432.99 0 432.45-0.43 431.9-0.86 431.9-1.61L431.9-1.61 431.9-14.14Q431.9-16.78 430.41-18.28L430.41-18.28Q429.03-19.54 426.84-19.54L426.84-19.54Q422.48-19.54 420.92-15.98L420.92-15.98Q420.29-14.66 420.29-12.76L420.29-12.76 420.29-1.61Q420.29-0.8 419.75-0.4 419.2 0 418.57 0L418.57 0Q417.88 0 417.33-0.43 416.79-0.86 416.79-1.61L416.79-1.61 416.79-14.14Q416.79-16.78 415.35-18.28L415.35-18.28Q413.97-19.54 412.19-19.54 410.41-19.54 409.26-19.14 408.11-18.74 407.19-17.82L407.19-17.82Q405.35-15.98 405.23-12.64L405.23-12.64 405.23-1.61Q405.23-0.8 404.66-0.4 404.09 0 403.45 0 402.82 0 402.25-0.43 401.67-0.86 401.67-1.61L401.67-1.61 401.67-20.17Q401.67-20.92 402.25-21.38 402.82-21.84 403.34-21.84 403.86-21.84 404.14-21.7 404.43-21.55 404.66-21.38L404.66-21.38Q405.23-20.92 405.23-20.23L405.23-20.23 405.23-18.16Q406.04-20.11 408.17-21.21L408.17-21.21Q410.06-22.24 412.59-22.24L412.59-22.24Q416.5-22.24 418.57-19.77L418.57-19.77Q419.26-18.85 419.72-17.7ZM461.55-11.55L461.55-11.55Q461.55-10.34 460.17-10.23L460.17-10.23 444.43-10.23Q444.66-4.37 449.03-2.64L449.03-2.64Q450.23-2.24 451.78-2.24L451.78-2.24Q455-2.24 458.34-4.6L458.34-4.6Q459.37-5.17 460.06-4.48L460.06-4.48Q460.4-4.14 460.29-3.79L460.29-3.79Q460.29-2.99 459.89-2.64L459.89-2.64Q456.73 0.52 451.55 0.46L451.55 0.46Q446.84 0.46 443.97-2.59L443.97-2.59Q440.75-5.75 440.75-10.92L440.75-10.92Q440.75-15.69 443.39-18.79L443.39-18.79Q446.15-22.24 451.21-22.24L451.21-22.24Q456.27-22.24 458.91-19.2L458.91-19.2Q461.44-16.44 461.55-11.55ZM444.54-12.59L458.16-12.59Q457.99-15.69 456.15-17.7L456.15-17.7Q454.43-19.54 451.21-19.54L451.21-19.54Q448.45-19.54 446.5-17.47L446.5-17.47Q444.72-15.4 444.54-12.59L444.54-12.59ZM465.46-10.92L465.46-10.92Q465.46-15.69 468.16-18.85L468.16-18.85Q471.09-22.24 475.8-22.24L475.8-22.24Q479.83-22.24 481.95-20.57L481.95-20.57Q482.59-20.11 482.59-19.48 482.59-18.85 482.24-18.48 481.9-18.1 481.44-18.1 480.98-18.1 480.75-18.28L480.75-18.28Q478.56-19.54 476.15-19.48L476.15-19.48Q472.99-19.48 471.21-17.13L471.21-17.13Q469.2-14.71 469.2-10.92L469.2-10.92Q469.2-7.41 470.63-5L470.63-5Q472.36-2.24 476.15-2.24L476.15-2.24Q478.22-2.24 481.21-3.68L481.21-3.68Q482.01-4.14 482.59-3.45L482.59-3.45Q482.93-3.1 482.93-2.5 482.93-1.9 482.18-1.29 481.44-0.69 480.4-0.34L480.4-0.34Q477.87 0.52 475.52 0.49 473.16 0.46 471.26-0.4 469.37-1.26 468.1-2.93L468.1-2.93Q465.46-6.09 465.46-10.92ZM503.27-1.61L503.27-14.14Q503.27-16.78 501.78-18.28L501.78-18.28Q500.46-19.54 498.7-19.54 496.95-19.54 495.74-19.14 494.54-18.74 493.62-17.82L493.62-17.82Q491.66-15.98 491.66-12.59L491.66-12.59 491.66-1.61Q491.66-0.8 491.09-0.4 490.51 0 489.83 0L489.83 0Q489.14 0 488.68-0.43 488.22-0.86 488.22-1.61L488.22-1.61 488.22-29.66Q488.22-30.46 488.79-30.86 489.37-31.26 489.94-31.26L489.94-31.26Q490.63-31.26 491.15-30.89 491.66-30.52 491.66-29.66L491.66-29.66 491.66-18.1Q492.47-20.11 494.65-21.21L494.65-21.21Q496.66-22.24 498.65-22.24 500.63-22.24 502.01-21.75 503.39-21.26 504.54-20.34L504.54-20.34Q506.84-18.16 506.84-13.91L506.84-13.91 506.84-1.61Q506.84-0.8 506.23-0.4 505.63 0 505 0L505 0Q504.31 0 503.79-0.43 503.27-0.86 503.27-1.61L503.27-1.61ZM523.9-13.28L523.9-13.28Q525.11-13.28 526.32-13.22L526.32-13.22 526.32-15.06Q526.32-19.54 521.32-19.54L521.32-19.54Q519.08-19.54 518.04-19.14L518.04-19.14Q516.2-18.45 515.4-17.96 514.59-17.47 514.13-17.47 513.67-17.47 513.27-17.82 512.87-18.16 512.87-18.74L512.87-18.74Q512.87-19.2 513.39-19.66L513.39-19.66Q516.09-22.24 521.37-22.24L521.37-22.24Q527.47-22.24 529.19-18.16L529.19-18.16Q529.77-16.72 529.77-14.83L529.77-14.83 529.65-1.55Q529.65-0.8 529.13-0.4 528.62 0 527.98 0 527.35 0 526.83-0.34 526.32-0.69 526.32-1.49L526.32-1.49 526.32-3.56Q524.94-0.57 521.37 0.17L521.37 0.17Q520.28 0.46 518.9 0.46 517.52 0.46 516.17 0.06 514.82-0.34 513.79-1.21L513.79-1.21Q511.66-2.99 511.66-6.03L511.66-6.03Q511.66-13.28 523.9-13.28ZM526.32-8.74L526.32-10.69Q525.4-10.57 524.19-10.57 522.98-10.57 521.72-10.55 520.45-10.52 519.31-10.26 518.16-10 517.24-9.48L517.24-9.48Q515.28-8.45 515.17-6.09L515.17-6.09Q515.17-4.25 516.66-3.22L516.66-3.22Q517.81-2.3 519.94-2.24L519.94-2.24Q522.52-2.24 524.42-3.91L524.42-3.91Q526.14-5.52 526.32-8.74L526.32-8.74ZM536.37-1.61L536.37-20.17Q536.37-20.92 536.95-21.38 537.52-21.84 538.1-21.84L538.1-21.84Q539.3-21.84 539.65-20.92 539.99-20 539.82-18.16L539.82-18.16Q540.51-19.89 542.81-21.15L542.81-21.15Q544.82-22.24 546.8-22.24 548.79-22.24 550.16-21.75 551.54-21.26 552.69-20.23L552.69-20.23Q554.99-18.05 554.99-13.79L554.99-13.79 554.99-1.61Q554.99-0.8 554.39-0.4 553.79 0 553.15 0L553.15 0Q552.46 0 551.95-0.43 551.43-0.86 551.43-1.61L551.43-1.61 551.43-14.02Q551.43-16.72 549.94-18.16L549.94-18.16Q548.56-19.54 546.49-19.54L546.49-19.54Q543.73-19.54 541.77-17.93L541.77-17.93Q539.82-16.21 539.82-12.64L539.82-12.64 539.82-1.61Q539.82-0.8 539.25-0.4 538.67 0 537.98 0L537.98 0Q537.29 0 536.83-0.43 536.37-0.86 536.37-1.61L536.37-1.61ZM565.85-29.43L565.85-29.43Q565.85-28.51 565.22-27.93 564.59-27.36 563.44-27.36 562.29-27.36 561.66-27.93 561.02-28.51 561.02-29.43L561.02-29.43Q561.02-30.23 561.66-30.8 562.29-31.38 563.47-31.38 564.65-31.38 565.25-30.8 565.85-30.23 565.85-29.43ZM561.71-1.72L561.71-20Q561.71-20.86 562.29-21.35 562.86-21.84 563.32-21.84 563.78-21.84 564.07-21.7 564.36-21.55 564.65-21.26L564.65-21.26Q565.28-20.86 565.28-20L565.28-20 565.28-1.72Q565.28-0.86 564.7-0.43 564.13 0 563.44 0L563.44 0Q562.75 0 562.23-0.43 561.71-0.86 561.71-1.72L561.71-1.72ZM570.56-10.92L570.56-10.92Q570.56-15.69 573.26-18.85L573.26-18.85Q576.19-22.24 580.91-22.24L580.91-22.24Q584.93-22.24 587.06-20.57L587.06-20.57Q587.69-20.11 587.69-19.48 587.69-18.85 587.34-18.48 587-18.1 586.54-18.1 586.08-18.1 585.85-18.28L585.85-18.28Q583.67-19.54 581.25-19.48L581.25-19.48Q578.09-19.48 576.31-17.13L576.31-17.13Q574.3-14.71 574.3-10.92L574.3-10.92Q574.3-7.41 575.73-5L575.73-5Q577.46-2.24 581.25-2.24L581.25-2.24Q583.32-2.24 586.31-3.68L586.31-3.68Q587.11-4.14 587.69-3.45L587.69-3.45Q588.03-3.1 588.03-2.5 588.03-1.9 587.29-1.29 586.54-0.69 585.5-0.34L585.5-0.34Q582.98 0.52 580.62 0.49 578.26 0.46 576.37-0.4 574.47-1.26 573.21-2.93L573.21-2.93Q570.56-6.09 570.56-10.92Z" opacity="1" transform="matrix(1,0,0,1,0,0)" fill="#42c8b7" class="undefined-text-1" data-fill-palette-color="secondary" id="text-1"></path></svg></g></svg></g></svg></g></svg></g><g><svg viewBox="0 0 101.44346449815814 133.78975236392088" height="133.78975236392088" width="101.44346449815814"><g><svg xmlns="http://www.w3.org/2000/svg" xmlns:xlink="http://www.w3.org/1999/xlink" version="1.1" x="0" y="0" viewBox="15.500000000000002 1.0999999999999908 73.7 97.19999999999997" enable-background="new 0 0 100 100" xml:space="preserve" height="133.78975236392088" width="101.44346449815814" class="icon-icon-0" data-fill-palette-color="accent" id="icon-0"><path d="M71.5 64.8l-8.1 15.9c-0.2 0.3-0.4 0.5-0.8 0.6-2.8 0.6-5.1 2.3-6.5 4.7-9.7 0-20-0.1-20-0.1s0.5-4 0-9.1c-0.5-5-2.9-10.6-2.9-10.6l-6.6 3.4c0 0 1.8 6.1 1.7 10.7-0.1 4.6-2.3 11.4-2.3 11.4s19.7 1.8 25.8 1.6c0.8 0 1.8-0.1 3-0.1 0.1 0.5 0.2 1 0.4 1.5-1.1 0-2.2 0-3.3 0-13.8 0-26.4-1.1-35.8-2.8-0.4-2.7-0.6-5.7-0.6-9 0-2.2 0.6-4.4 1.7-6.5 3.4-6.4 11.7-11.5 22.2-13.8C41.7 67 46.4 70 51.9 70s10.2-3 12.4-7.3C66.9 63.2 69.3 63.9 71.5 64.8zM62 92.9v1.7c1.9-0.1 3.8-0.2 5.7-0.3v-1.8c0 0 0 0 0 0C65.8 92.6 63.9 92.7 62 92.9zM86.5 76.4c-1.4-2.7-3.7-5.2-6.7-7.3l-1 2v0c-0.6 1.6-1.9 5.4-2.4 8.7-0.7 4.2 0 12 0 12s-0.5 0.1-1.5 0.1c0 0.6-0.2 1.3-0.3 1.9 4.8-0.5 9.2-1 13.1-1.8 0.3-2.7 0.5-5.7 0.5-9.1C88.2 80.7 87.6 78.5 86.5 76.4zM56.7 93.5c0.1 0.4 0.3 0.9 0.4 1.2 0 0 0 0 0 0C56.9 94.3 56.8 93.9 56.7 93.5zM72.8 93.9C72.9 93.9 72.9 93.9 72.8 93.9c0.2-0.4 0.3-0.9 0.4-1.3C73.1 93 73 93.5 72.8 93.9zM73.3 92c0 0.2 0 0.4-0.1 0.6C73.2 92.4 73.3 92.2 73.3 92L73.3 92C73.3 91.9 73.3 92 73.3 92zM42.9 35.1c-1.3 0-2.4 1.1-2.4 2.4 0 1.3 1.1 2.4 2.4 2.4 1.3 0 2.4-1.1 2.4-2.4C45.3 36.1 44.3 35.1 42.9 35.1zM60.1 35.1c-1.3 0-2.4 1.1-2.4 2.4 0 1.3 1.1 2.4 2.4 2.4 1.3 0 2.4-1.1 2.4-2.4C62.4 36.1 61.4 35.1 60.1 35.1zM42.9 35.1c-1.3 0-2.4 1.1-2.4 2.4 0 1.3 1.1 2.4 2.4 2.4 1.3 0 2.4-1.1 2.4-2.4C45.3 36.1 44.3 35.1 42.9 35.1zM60.1 35.1c-1.3 0-2.4 1.1-2.4 2.4 0 1.3 1.1 2.4 2.4 2.4 1.3 0 2.4-1.1 2.4-2.4C62.4 36.1 61.4 35.1 60.1 35.1zM76.3 35.5c-0.4 2-1.5 3.8-3.1 5.3-0.7 0.6-1.5 1.1-2.3 1.5-2.6 11.1-10.6 18.8-19.6 18.8-8.9 0-16.9-7.6-19.6-18.6-0.9-0.4-1.8-1-2.5-1.7-1.7-1.5-2.8-3.4-3.2-5.3-0.4-2 0.1-3.9 1.3-5.3 1-1.1 2.4-1.8 4-1.9 0.2-0.9 0.4-1.7 0.6-2.6v-0.1c-0.1-3.5-0.2-8.9-0.2-12.5 0-5.7 10.2-12 20.5-12 10.2 0 18.7 9.3 18.7 11.8 0 1.7-0.1 8.4-0.2 12.7v0.1c0.2 0.9 0.5 1.7 0.6 2.6 1.5 0.2 2.9 0.8 3.8 1.9C76.2 31.6 76.7 33.5 76.3 35.5zM42.4 10.6c0 0.1 0 0.2 0 0.3 0.1 0.6 0.2 1 0.2 1.5 0.1 0.3 0.1 0.6 0.2 1 0.3 1.6 1.8 2.8 3.5 2.6 4.5-0.5 6.8-0.5 11.3 0 1.7 0.2 3.2-1 3.5-2.6 0 0 0-0.1 0-0.1 0.1-0.7 0.2-1.2 0.3-1.8 0-0.2 0.1-0.3 0.1-0.5 0.3-1.6-1.1-3.2-3-3.4-5.2-0.5-7.8-0.5-13 0C43.6 7.7 42.3 9.1 42.4 10.6zM73.8 31.3C73 30.5 71.8 30 70.5 30h-0.3l-1.8 5.5-0.6-7-3.4 3.4c0 0-4.1-6.8-12.4-6.8-8.3 0-13.4 6.7-13.4 6.7l-4-3.3-1.9 6.5L32.1 30l-0.3 0c-1.4 0-2.5 0.5-3.3 1.3-0.9 1-1.2 2.3-0.9 3.9 0.3 1.6 1.2 3.2 2.6 4.4 0.7 0.7 1.6 1.2 2.5 1.5l0.4 0.2 0.1 0.4c2.4 10.4 9.8 17.7 18.1 17.7 8.3 0 15.7-7.3 18.1-17.9l0.1-0.4 0.4-0.2c0.8-0.4 1.5-0.9 2.2-1.4 1.4-1.2 2.3-2.8 2.6-4.4C74.9 33.6 74.6 32.3 73.8 31.3zM73.3 92L73.3 92 73.3 92C73.3 91.9 73.3 92 73.3 92zM84.6 47.9v6.1c0 1.4-1.1 2.5-2.5 2.5h-4c-1.4 0-2.5-1.1-2.5-2.5v-6.1c-2.4 1.5-4 4.2-4 7.2 0 2.3 0.9 4.4 2.4 5.9 0.5 0.5 0.6 1.4 0.3 2.1l-1.2 2.3-0.9 1.8-0.8 1.6 0 0-6.4 12.5c-0.1 0.1-0.1 0.2-0.2 0.3-0.1 0.2-0.2 0.3-0.4 0.5-0.4 0.4-0.8 0.6-1.3 0.7-2 0.4-3.7 1.5-4.9 3.1-1.1 1.4-1.8 3.3-1.8 5.2 0 0.2 0 0.3 0 0.5 0 0.1 0 0.2 0 0.3 0 0.2 0.1 0.5 0.1 0.7 0 0.1 0.1 0.2 0.1 0.3 0 0.1 0 0.1 0 0.2 0 0.1 0 0.2 0.1 0.3 0.1 0.4 0.3 0.9 0.5 1.2 0.1 0.2 0.2 0.4 0.3 0.6 0.1 0.2 0.2 0.3 0.3 0.5 0.1 0.2 0.2 0.3 0.3 0.5 0 0 0 0.1 0.1 0.1 0.2 0.3 0.4 0.5 0.7 0.8 0 0 0.1 0.1 0.1 0.1 0.2 0.2 0.5 0.4 0.7 0.6 0 0 0 0 0.1 0h0c0.1 0.1 0.2 0.2 0.3 0.2 0.1 0.1 0.3 0.2 0.4 0.3v-5.9c0-1.4 1.1-2.5 2.5-2.5h4c0.2 0 0.3 0 0.5 0.1h0c0.2 0 0.3 0.1 0.4 0.1 0.1 0 0.2 0.1 0.3 0.1 0.1 0 0.1 0.1 0.2 0.1 0.1 0.1 0.3 0.2 0.4 0.3 0.1 0.1 0.2 0.2 0.3 0.3 0.1 0.1 0.1 0.2 0.2 0.3 0 0 0.1 0.1 0.1 0.1 0.1 0.1 0.1 0.3 0.2 0.4 0 0.2 0.1 0.3 0.1 0.5 0 0.1 0 0.1 0 0.2v5.9c0.4-0.3 0.8-0.5 1.2-0.9 0.2-0.2 0.4-0.3 0.5-0.5 0.2-0.2 0.3-0.3 0.5-0.5 0 0 0 0 0.1-0.1 0.1-0.2 0.3-0.4 0.4-0.5 0.1-0.2 0.2-0.3 0.3-0.5 0-0.1 0.1-0.1 0.1-0.2 0 0 0-0.1 0.1-0.1 0.1-0.2 0.2-0.3 0.2-0.5 0.1-0.2 0.2-0.5 0.3-0.7 0.2-0.4 0.3-0.9 0.4-1.3 0-0.2 0.1-0.4 0.1-0.6 0 0 0-0.1 0-0.1 0 0 0 0 0 0 0-0.1 0-0.1 0-0.2 0-0.2 0-0.4 0-0.6 0-2.2-0.8-4.2-2.2-5.7-0.5-0.6-0.7-1.5-0.3-2.2l6.9-13.6 0.7-1.5 1.9-3.7c0.3-0.5 0.8-0.9 1.4-1.1 3.9-0.8 6.9-4.2 6.9-8.3C88.6 52.1 87 49.4 84.6 47.9zM57.1 94.7c-0.2-0.4-0.3-0.8-0.5-1.2C56.8 93.9 56.9 94.3 57.1 94.7c0.1 0.2 0.2 0.4 0.3 0.6C57.3 95.1 57.2 94.9 57.1 94.7zM72.6 94.6c0.1-0.2 0.2-0.5 0.3-0.7 0.1-0.4 0.3-0.9 0.3-1.3-0.1 0.5-0.2 0.9-0.4 1.3C72.8 94.1 72.7 94.4 72.6 94.6zM73.3 92c0 0.2 0 0.4-0.1 0.6C73.2 92.4 73.3 92.2 73.3 92L73.3 92C73.3 91.9 73.3 92 73.3 92z" fill="#3cb0a2" data-fill-palette-color="accent"></path></svg></g></svg></g></svg></g><defs></defs></svg><rect width="395.52" height="100.10508907674982" fill="none" stroke="none" visibility="hidden"></rect></g></svg></g></svg>