<svg xmlns="http://www.w3.org/2000/svg" width="36" height="36" viewBox="0 0 36 36">
    <defs>
        <style>
            .cls-1{fill:none}
        </style>
    </defs>
    <g id="Group_6407" data-name="Group 6407" transform="translate(-1481 -6155.5)">
        <path id="Rectangle_11618" d="M0 0h36v36H0z" class="cls-1" data-name="Rectangle 11618"
              transform="translate(1481 6155.5)"/>
        <path id="_004-twitter"
              d="M8.5 18.446c-3.729 0-6.676-.651-8.087-1.787l-.028-.024-.025-.025a1.147 1.147 0 0 1-.3-1.21l.013-.036a1.168 1.168 0 0 1 1.066-.733 9.628 9.628 0 0 0 2.549-.355 4.832 4.832 0 0 1-2.548-2.933 1.044 1.044 0 0 1 .36-1.216 1.064 1.064 0 0 1 .314-.157A7.046 7.046 0 0 1 .377 7.376l-.009-.03v-.03A1.072 1.072 0 0 1 1.386 6a5.448 5.448 0 0 1-.411-1.251 5.254 5.254 0 0 1 .552-3.493l.139-.284A.772.772 0 0 1 2.9.771l.253.253a11.913 11.913 0 0 0 6.872 3.766A5.472 5.472 0 0 1 11.5 1.635 5.179 5.179 0 0 1 15.2 0h.009a7.414 7.414 0 0 1 3.061 1c.658-.215 1.452-.549 2.274-.9a1.039 1.039 0 0 1 1.163.2 1.022 1.022 0 0 1 .221 1.122q-.089.25-.2.49a1.04 1.04 0 0 1 .3.209 1.124 1.124 0 0 1 .279 1.05L22.3 3.2a4.286 4.286 0 0 1-1.726 2.363c-.135 7.13-5.494 12.873-12.074 12.873zm-6.83-2.511a15.433 15.433 0 0 0 6.83 1.206 10.23 10.23 0 0 0 7.584-3.452A12.363 12.363 0 0 0 19.27 5.3v-.04a.772.772 0 0 1 .411-.683 2.782 2.782 0 0 0 1.2-1.332.772.772 0 0 1-.744-1.216 4.252 4.252 0 0 0 .292-.46c-.711.3-1.386.567-1.971.744a.838.838 0 0 1-.645-.069 6.384 6.384 0 0 0-2.594-.934A4.08 4.08 0 0 0 11.3 5.439a.774.774 0 0 1-.923.758 13.545 13.545 0 0 1-7.866-3.959A3.868 3.868 0 0 0 2.257 4.5a4.78 4.78 0 0 0 1.135 2.2.772.772 0 0 1-.785 1.255 3.539 3.539 0 0 1-.723-.273 6.527 6.527 0 0 0 2.243 2.6.772.772 0 0 1-.494 1.412 3.475 3.475 0 0 1-1.025-.231 3.523 3.523 0 0 0 2.812 1.993.772.772 0 0 1 .229 1.444 9.284 9.284 0 0 1-3.977 1.031zm0 0"
              data-name="004-twitter" transform="translate(1488.106 6164.383)"/>
    </g>
</svg>
