<svg xmlns="http://www.w3.org/2000/svg" width="36" height="36" viewBox="0 0 36 36">
    <defs>
        <style>
            .cls-1{fill:none}
        </style>
    </defs>
    <g id="Group_6406" data-name="Group 6406" transform="translate(-1598 -6155.5)">
        <path id="Rectangle_11615" d="M0 0h36v36H0z" class="cls-1" data-name="Rectangle 11615"
              transform="translate(1598 6155.5)"/>
        <g id="_018-youtube" data-name="018-youtube" transform="translate(1601.388 6162.639)">
            <path id="Tracé_109"
                  d="M199.239 110.239l-6.521-3.568a1.2 1.2 0 0 0-1.773 1.051v7.078a1.2 1.2 0 0 0 1.764 1.055l6.521-3.506a1.2 1.2 0 0 0 0-2.106zm-6.564 3.668v-5.287l4.874 2.666zm0 0"
                  data-name="Tracé 109" transform="translate(-179.939 -100.381)"/>
            <path id="Tracé_110"
                  d="M29.3 5.276v-.014a6.75 6.75 0 0 0-1.31-3.425A4.8 4.8 0 0 0 24.816.346l-.144-.018h-.052C20.714.039 14.822 0 14.762 0 14.7 0 8.81.039 4.872.323H4.82l-.149.021a4.682 4.682 0 0 0-3.162 1.539A7.074 7.074 0 0 0 .218 5.245v.031C.207 5.376 0 7.729 0 10.091V12.3c0 2.364.207 4.717.207 4.816v.015a6.684 6.684 0 0 0 1.306 3.381A4.9 4.9 0 0 0 4.8 21.983c.12.015.224.025.294.037h.068c2.254.207 9.317.319 9.616.323h.022c.058 0 5.952-.039 9.854-.323h.052l.165-.02a4.574 4.574 0 0 0 3.135-1.5 7.074 7.074 0 0 0 1.29-3.355v-.031c0-.1.207-2.453.207-4.814v-2.21c0-2.364-.207-4.717-.207-4.814zM27.782 12.3c0 2.187-.191 4.439-.207 4.646a5.492 5.492 0 0 1-.848 2.4 2.845 2.845 0 0 1-2.042.947l-.185.021c-3.773.274-9.446.315-9.707.317-.28-.006-7.25-.1-9.436-.311a5.445 5.445 0 0 0-.361-.046 3.234 3.234 0 0 1-2.212-.925l-.017-.017a4.976 4.976 0 0 1-.829-2.372 60.127 60.127 0 0 1-.211-4.659v-2.21c0-2.185.191-4.435.207-4.644a5.39 5.39 0 0 1 .848-2.4 2.984 2.984 0 0 1 2.088-.974l.141-.027c3.829-.274 9.537-.315 9.745-.317s5.915.044 9.709.317l.153.027a3.1 3.1 0 0 1 2.119.96 5.063 5.063 0 0 1 .829 2.407c.012.147.207 2.432.207 4.652zm0 0"
                  data-name="Tracé 110"/>
        </g>
    </g>
</svg>
